<svg width="96" height="96" xmlns="http://www.w3.org/2000/svg" xmlns:xlink="http://www.w3.org/1999/xlink" xml:space="preserve" overflow="hidden"><g transform="translate(-1114 -372)"><path d="M1153.5 416.6C1153.5 421.571 1149.47 425.6 1144.5 425.6 1139.53 425.6 1135.5 421.571 1135.5 416.6 1135.5 411.629 1139.53 407.6 1144.5 407.6 1149.47 407.6 1153.5 411.629 1153.5 416.6Z"/><path d="M1186.5 460 1186.5 451C1186.54 449.575 1185.86 448.225 1184.7 447.4 1182.11 445.372 1179.11 443.939 1175.9 443.2 1173.5 442.478 1171.01 442.074 1168.5 442 1165.99 442.008 1163.49 442.413 1161.1 443.2 1157.94 444.065 1154.96 445.487 1152.3 447.4 1151.17 448.254 1150.51 449.585 1150.5 451L1150.5 460Z"/><path d="M1177.5 430.6C1177.5 435.571 1173.47 439.6 1168.5 439.6 1163.53 439.6 1159.5 435.571 1159.5 430.6 1159.5 425.629 1163.53 421.6 1168.5 421.6 1173.47 421.6 1177.5 425.629 1177.5 430.6Z"/><path d="M1149.9 444.2 1149.9 444.2C1152.71 442.196 1155.81 440.644 1159.1 439.6 1156.83 437.23 1155.54 434.084 1155.5 430.8L1155.5 430.4C1154.33 429.91 1153.13 429.509 1151.9 429.2 1149.5 428.478 1147.01 428.074 1144.5 428 1141.99 428.008 1139.49 428.413 1137.1 429.2 1133.97 430.15 1131.01 431.565 1128.3 433.4 1127.14 434.225 1126.46 435.575 1126.5 437L1126.5 446 1148.1 446C1148.6 445.304 1149.2 444.696 1149.9 444.2Z"/><path d="M1195.35 380 1157.58 380C1156.42 380.011 1155.49 380.954 1155.5 382.11L1155.5 407.86C1155.48 409.02 1156.4 409.978 1157.56 410 1157.57 410 1157.57 410 1157.58 410L1163.58 410 1163.58 418.44 1171.87 410 1195.35 410C1196.51 409.989 1197.44 409.048 1197.44 407.89L1197.44 382.11C1197.44 380.952 1196.51 380.011 1195.35 380ZM1176.29 406.25C1175.06 406.25 1174.07 405.256 1174.07 404.03 1174.07 402.804 1175.06 401.81 1176.29 401.81 1177.5 401.81 1178.49 402.786 1178.51 404 1178.53 405.22 1177.56 406.228 1176.34 406.25 1176.32 406.25 1176.31 406.25 1176.29 406.25ZM1177.72 397.1 1177.72 400.25 1174.87 400.25 1174.87 394.36 1176.29 394.36C1178.77 394.36 1180.37 392.91 1180.37 390.68 1180.41 388.471 1178.65 386.649 1176.44 386.61 1176.39 386.609 1176.34 386.609 1176.29 386.61 1174.23 386.419 1172.41 387.931 1172.22 389.988 1172.2 390.218 1172.2 390.45 1172.22 390.68L1172.22 390.93 1169.37 390.93 1169.37 390.68C1169.15 387.069 1171.91 383.967 1175.52 383.751 1175.77 383.735 1176.03 383.735 1176.29 383.75 1180.07 383.706 1183.18 386.736 1183.22 390.519 1183.22 390.573 1183.22 390.626 1183.22 390.68 1183.32 393.918 1180.93 396.699 1177.72 397.1Z"/></g></svg>